<svg width="147" height="25" viewBox="0 0 147 25" fill="none" xmlns="http://www.w3.org/2000/svg">
<path d="M12.376 24.32C10.6693 24.32 9.08 24.0427 7.608 23.488C6.15733 22.912 4.888 22.112 3.8 21.088C2.73333 20.0427 1.90133 18.816 1.304 17.408C0.706667 16 0.408 14.464 0.408 12.8C0.408 11.136 0.706667 9.6 1.304 8.192C1.90133 6.784 2.744 5.568 3.832 4.544C4.92 3.49867 6.18933 2.69867 7.64 2.144C9.09067 1.568 10.68 1.28 12.408 1.28C14.2427 1.28 15.9173 1.6 17.432 2.24C18.9467 2.85867 20.2267 3.78667 21.272 5.024L18.584 7.552C17.7733 6.67733 16.8667 6.02667 15.864 5.6C14.8613 5.152 13.7733 4.928 12.6 4.928C11.4267 4.928 10.3493 5.12 9.368 5.504C8.408 5.888 7.56533 6.432 6.84 7.136C6.136 7.84 5.58133 8.672 5.176 9.632C4.792 10.592 4.6 11.648 4.6 12.8C4.6 13.952 4.792 15.008 5.176 15.968C5.58133 16.928 6.136 17.76 6.84 18.464C7.56533 19.168 8.408 19.712 9.368 20.096C10.3493 20.48 11.4267 20.672 12.6 20.672C13.7733 20.672 14.8613 20.4587 15.864 20.032C16.8667 19.584 17.7733 18.912 18.584 18.016L21.272 20.576C20.2267 21.792 18.9467 22.72 17.432 23.36C15.9173 24 14.232 24.32 12.376 24.32ZM31.8978 24.224C30.1484 24.224 28.5911 23.8507 27.2258 23.104C25.8604 22.336 24.7831 21.2907 23.9938 19.968C23.2044 18.6453 22.8098 17.1413 22.8098 15.456C22.8098 13.7493 23.2044 12.2453 23.9938 10.944C24.7831 9.62133 25.8604 8.58667 27.2258 7.84C28.5911 7.09333 30.1484 6.72 31.8978 6.72C33.6684 6.72 35.2364 7.09333 36.6018 7.84C37.9884 8.58667 39.0658 9.61067 39.8338 10.912C40.6231 12.2133 41.0178 13.728 41.0178 15.456C41.0178 17.1413 40.6231 18.6453 39.8338 19.968C39.0658 21.2907 37.9884 22.336 36.6018 23.104C35.2364 23.8507 33.6684 24.224 31.8978 24.224ZM31.8978 20.8C32.8791 20.8 33.7538 20.5867 34.5218 20.16C35.2898 19.7333 35.8871 19.1147 36.3138 18.304C36.7618 17.4933 36.9858 16.544 36.9858 15.456C36.9858 14.3467 36.7618 13.3973 36.3138 12.608C35.8871 11.7973 35.2898 11.1787 34.5218 10.752C33.7538 10.3253 32.8898 10.112 31.9298 10.112C30.9484 10.112 30.0738 10.3253 29.3058 10.752C28.5591 11.1787 27.9618 11.7973 27.5138 12.608C27.0658 13.3973 26.8418 14.3467 26.8418 15.456C26.8418 16.544 27.0658 17.4933 27.5138 18.304C27.9618 19.1147 28.5591 19.7333 29.3058 20.16C30.0738 20.5867 30.9378 20.8 31.8978 20.8ZM52.0748 24.224C50.4321 24.224 48.9494 23.8613 47.6268 23.136C46.3254 22.3893 45.3014 21.3653 44.5548 20.064C43.8081 18.7627 43.4348 17.2267 43.4348 15.456C43.4348 13.6853 43.8081 12.1493 44.5548 10.848C45.3014 9.54667 46.3254 8.53333 47.6268 7.808C48.9494 7.08267 50.4321 6.72 52.0748 6.72C53.5041 6.72 54.7841 7.04 55.9148 7.68C57.0454 8.29867 57.9414 9.248 58.6028 10.528C59.2641 11.808 59.5948 13.4507 59.5948 15.456C59.5948 17.44 59.2748 19.0827 58.6348 20.384C57.9948 21.664 57.1094 22.624 55.9788 23.264C54.8481 23.904 53.5468 24.224 52.0748 24.224ZM52.5548 20.8C53.5148 20.8 54.3681 20.5867 55.1148 20.16C55.8828 19.7333 56.4908 19.1147 56.9388 18.304C57.4081 17.4933 57.6428 16.544 57.6428 15.456C57.6428 14.3467 57.4081 13.3973 56.9388 12.608C56.4908 11.7973 55.8828 11.1787 55.1148 10.752C54.3681 10.3253 53.5148 10.112 52.5548 10.112C51.5948 10.112 50.7308 10.3253 49.9628 10.752C49.2161 11.1787 48.6081 11.7973 48.1388 12.608C47.6908 13.3973 47.4668 14.3467 47.4668 15.456C47.4668 16.544 47.6908 17.4933 48.1388 18.304C48.6081 19.1147 49.2161 19.7333 49.9628 20.16C50.7308 20.5867 51.5948 20.8 52.5548 20.8ZM57.7388 24V19.968L57.8988 15.424L57.5788 10.88V0.255999H61.5468V24H57.7388ZM74.8435 24.224C72.9448 24.224 71.2808 23.8507 69.8515 23.104C68.4435 22.336 67.3448 21.2907 66.5555 19.968C65.7875 18.6453 65.4035 17.1413 65.4035 15.456C65.4035 13.7493 65.7768 12.2453 66.5235 10.944C67.2915 9.62133 68.3368 8.58667 69.6595 7.84C71.0035 7.09333 72.5288 6.72 74.2355 6.72C75.8995 6.72 77.3822 7.08267 78.6835 7.808C79.9848 8.53333 81.0088 9.55733 81.7555 10.88C82.5022 12.2027 82.8755 13.76 82.8755 15.552C82.8755 15.7227 82.8648 15.9147 82.8435 16.128C82.8435 16.3413 82.8328 16.544 82.8115 16.736H68.5715V14.08H80.6995L79.1315 14.912C79.1528 13.9307 78.9502 13.0667 78.5235 12.32C78.0968 11.5733 77.5102 10.9867 76.7635 10.56C76.0382 10.1333 75.1955 9.92 74.2355 9.92C73.2542 9.92 72.3902 10.1333 71.6435 10.56C70.9182 10.9867 70.3422 11.584 69.9155 12.352C69.5102 13.0987 69.3075 13.984 69.3075 15.008V15.648C69.3075 16.672 69.5422 17.5787 70.0115 18.368C70.4808 19.1573 71.1422 19.7653 71.9955 20.192C72.8488 20.6187 73.8302 20.832 74.9395 20.832C75.8995 20.832 76.7635 20.6827 77.5315 20.384C78.2995 20.0853 78.9822 19.616 79.5795 18.976L81.7235 21.44C80.9555 22.336 79.9848 23.0293 78.8115 23.52C77.6595 23.9893 76.3368 24.224 74.8435 24.224Z" fill="#086F6C"/>
<path d="M87.1018 24V1.6H97.5978C100.286 1.6 102.334 2.13333 103.742 3.2C105.15 4.24533 105.854 5.65333 105.854 7.424C105.854 8.61867 105.576 9.64267 105.022 10.496C104.467 11.328 103.72 11.9787 102.782 12.448C101.864 12.896 100.862 13.12 99.7738 13.12L100.35 11.968C101.608 11.968 102.739 12.2027 103.742 12.672C104.744 13.12 105.534 13.7813 106.11 14.656C106.707 15.5307 107.006 16.6187 107.006 17.92C107.006 19.84 106.27 21.3333 104.798 22.4C103.326 23.4667 101.139 24 98.2378 24H87.1018ZM91.2618 20.736H97.9818C99.5391 20.736 100.734 20.48 101.566 19.968C102.398 19.456 102.814 18.6347 102.814 17.504C102.814 16.3947 102.398 15.584 101.566 15.072C100.734 14.5387 99.5391 14.272 97.9818 14.272H90.9418V11.04H97.1498C98.6004 11.04 99.7098 10.784 100.478 10.272C101.267 9.76 101.662 8.992 101.662 7.968C101.662 6.92267 101.267 6.144 100.478 5.632C99.7098 5.12 98.6004 4.864 97.1498 4.864H91.2618V20.736ZM118.742 24.224C116.992 24.224 115.435 23.8507 114.07 23.104C112.704 22.336 111.627 21.2907 110.838 19.968C110.048 18.6453 109.654 17.1413 109.654 15.456C109.654 13.7493 110.048 12.2453 110.838 10.944C111.627 9.62133 112.704 8.58667 114.07 7.84C115.435 7.09333 116.992 6.72 118.742 6.72C120.512 6.72 122.08 7.09333 123.446 7.84C124.832 8.58667 125.91 9.61067 126.678 10.912C127.467 12.2133 127.862 13.728 127.862 15.456C127.862 17.1413 127.467 18.6453 126.678 19.968C125.91 21.2907 124.832 22.336 123.446 23.104C122.08 23.8507 120.512 24.224 118.742 24.224ZM118.742 20.8C119.723 20.8 120.598 20.5867 121.366 20.16C122.134 19.7333 122.731 19.1147 123.158 18.304C123.606 17.4933 123.83 16.544 123.83 15.456C123.83 14.3467 123.606 13.3973 123.158 12.608C122.731 11.7973 122.134 11.1787 121.366 10.752C120.598 10.3253 119.734 10.112 118.774 10.112C117.792 10.112 116.918 10.3253 116.15 10.752C115.403 11.1787 114.806 11.7973 114.358 12.608C113.91 13.3973 113.686 14.3467 113.686 15.456C113.686 16.544 113.91 17.4933 114.358 18.304C114.806 19.1147 115.403 19.7333 116.15 20.16C116.918 20.5867 117.782 20.8 118.742 20.8ZM128.788 24L136.308 14.208L136.244 16.352L129.076 6.912H133.524L138.548 13.632H136.852L141.908 6.912H146.228L138.996 16.352L139.028 14.208L146.516 24H142.004L136.724 16.864L138.388 17.088L133.204 24H128.788Z" fill="#FFAD0F"/>
</svg>
