<svg width="20" height="18" viewBox="0 0 20 18" fill="none" xmlns="http://www.w3.org/2000/svg">
<path d="M19.4293 12.6859L15.0543 11.0028C14.8674 10.9313 14.6597 10.9162 14.4624 10.9599C14.2652 11.0035 14.089 11.1035 13.9605 11.2447L12.023 13.3696C8.98232 12.0827 6.53524 9.88609 5.10156 7.15661L7.46875 5.41743C7.62644 5.30231 7.73804 5.14421 7.78668 4.96705C7.83531 4.7899 7.81832 4.60335 7.73828 4.43564L5.86328 0.508462C5.77543 0.327675 5.62007 0.180068 5.42397 0.0910937C5.22787 0.00211968 5.00332 -0.0226446 4.78906 0.0210712L0.726562 0.862609C0.519988 0.905429 0.335682 1.00984 0.203725 1.15879C0.0717677 1.30774 -4.75863e-05 1.49245 2.36571e-08 1.68276C2.36571e-08 10.6767 8.12109 17.9525 18.125 17.9525C18.3371 17.9526 18.5429 17.8882 18.709 17.7697C18.875 17.6513 18.9913 17.4858 19.0391 17.3003L19.9766 13.6536C20.025 13.4604 19.9968 13.258 19.8969 13.0814C19.797 12.9047 19.6317 12.7649 19.4293 12.6859Z" fill="#086F6C"/>
</svg>
